<?xml version="1.0" standalone="no"?>
<!DOCTYPE svg PUBLIC "-//W3C//DTD SVG 20010904//EN"
 "http://www.w3.org/TR/2001/REC-SVG-20010904/DTD/svg10.dtd">
<svg version="1.0" xmlns="http://www.w3.org/2000/svg"
 width="180.000000pt" height="180.000000pt" viewBox="0 0 180.000000 180.000000"
 preserveAspectRatio="xMidYMid meet">

<g transform="translate(0.000000,180.000000) scale(0.100000,-0.100000)"
fill="#000000" stroke="none">
<path d="M890 1753 c-57 -5 -143 -24 -163 -37 -10 -6 -38 -30 -63 -53 -24 -24
-52 -43 -61 -43 -13 0 -14 -3 -6 -8 17 -10 -6 -64 -24 -58 -6 3 -19 -4 -29
-15 -16 -18 -16 -19 1 -19 17 0 17 -1 2 -18 -16 -18 -13 -62 4 -62 5 0 6 -21
3 -47 -6 -44 -5 -46 9 -28 14 18 15 17 12 -15 -2 -19 -4 -35 -5 -35 -1 0 -4
-9 -5 -20 -2 -11 -8 -40 -13 -65 -9 -36 -8 -48 4 -61 25 -28 15 -31 -17 -5
-32 27 -54 33 -64 16 -3 -5 0 -10 8 -10 7 0 24 -11 37 -25 13 -14 34 -25 46
-25 15 0 25 -9 32 -29 10 -28 8 -30 -20 -40 -38 -13 -41 -14 -33 -1 3 6 16 11
28 11 18 1 18 2 4 6 -21 5 -47 -13 -47 -34 0 -10 4 -11 19 -3 29 15 61 12 68
-6 4 -11 10 -7 26 18 18 30 20 31 27 13 4 -11 6 -38 5 -60 -2 -22 -4 -46 -4
-52 -2 -27 -19 -11 -26 25 -4 20 -10 31 -12 25 -4 -10 -11 -9 -33 2 -57 29
-76 0 -57 -85 11 -47 16 -56 37 -59 21 -3 22 -5 7 -10 -17 -6 -16 -9 7 -34 14
-16 26 -32 26 -37 0 -5 9 -12 20 -15 11 -3 20 -13 20 -21 0 -17 17 -19 23 -1
3 9 7 9 17 1 14 -14 3 -57 -12 -48 -7 5 -9 0 -6 -14 9 -34 -8 -26 -33 15 -13
20 -25 31 -27 24 -2 -6 3 -23 12 -37 17 -24 17 -25 -10 -18 -20 5 -26 3 -22
-7 2 -8 19 -15 36 -17 30 -3 31 -4 17 -26 -19 -28 -7 -43 12 -16 17 24 44 25
84 4 37 -19 32 -26 -23 -33 -49 -7 -65 -31 -20 -31 16 0 46 7 67 16 20 8 44
13 53 11 13 -4 12 -5 -3 -6 -17 -1 -18 -3 -5 -12 13 -9 13 -10 0 -6 -25 7 -50
-12 -50 -38 0 -29 15 -33 22 -7 10 36 127 78 143 52 3 -5 16 -15 28 -21 19 -9
19 -8 -3 11 l-25 21 32 -4 c18 -2 30 0 27 5 -3 4 6 8 20 8 13 0 27 -6 29 -12
3 -8 6 -7 6 4 1 9 11 19 24 21 12 3 0 5 -28 4 l-50 -2 1 38 c1 41 -9 48 -26
16 -9 -16 -8 -26 5 -45 19 -29 15 -30 -35 -4 -44 23 -55 38 -66 95 l-7 40 -12
-29 -12 -29 -13 37 c-6 21 -19 40 -26 43 -8 3 -24 23 -34 44 -19 35 -19 39 -3
48 15 8 15 11 3 27 -13 16 -13 17 0 10 8 -4 6 -1 -4 8 -10 8 -24 17 -30 19 -7
3 -3 11 8 19 13 11 17 21 12 34 -4 10 -10 30 -12 44 -3 14 -9 26 -14 28 -5 2
-1 16 8 32 13 22 20 26 33 19 12 -6 19 -4 23 7 5 13 9 14 21 4 8 -6 22 -9 33
-6 13 4 22 -1 32 -18 17 -33 44 -44 37 -15 -4 15 -2 19 9 15 9 -3 23 9 38 33
25 39 66 61 113 61 26 0 48 -39 63 -114 4 -23 8 -31 9 -19 1 19 10 13 66 -42
36 -35 65 -59 65 -55 0 5 -20 26 -46 47 -45 38 -111 129 -101 139 11 11 65
-26 101 -70 21 -25 41 -46 45 -46 5 0 -16 26 -45 57 -29 32 -50 61 -48 65 3 5
10 6 15 3 5 -4 9 3 9 15 l0 21 30 -21 c75 -53 116 -108 130 -171 l9 -44 -3 43
c-6 58 -47 116 -118 166 -51 36 -57 44 -53 68 6 36 -30 218 -55 282 -11 27
-20 56 -20 65 0 9 -7 29 -15 45 -8 15 -15 35 -15 43 0 20 -88 103 -110 103
-10 0 -23 7 -30 15 -7 8 -18 14 -24 13 -6 0 -27 -3 -46 -5z m-280 -543 c0 -5
-4 -12 -10 -15 -5 -3 -10 -15 -10 -26 0 -11 -4 -17 -10 -14 -5 3 -10 18 -10
33 0 21 5 28 20 29 11 1 20 -2 20 -7z m575 -20 c3 -5 1 -10 -4 -10 -6 0 -11 5
-11 10 0 6 2 10 4 10 3 0 8 -4 11 -10z m-545 -65 c1 29 1 30 11 6 7 -18 5 -30
-6 -47 -17 -26 -27 -32 -20 -11 3 6 1 26 -4 42 -9 28 -9 29 -10 5 -1 -21 -3
-22 -11 -8 -7 11 -6 26 1 45 l12 28 12 -45 c12 -41 13 -42 15 -15z m489 24
c-16 -10 -23 -4 -14 10 3 6 11 8 17 5 6 -4 5 -9 -3 -15z m29 -27 c2 -7 -2 -10
-12 -6 -9 3 -16 11 -16 16 0 13 23 5 28 -10z m-511 -195 c17 -34 3 -61 -19
-38 -11 10 -9 11 7 6 11 -3 7 1 -8 8 -32 15 -47 34 -47 59 0 27 48 1 67 -35z
m73 -41 c0 -7 -7 -19 -15 -26 -12 -10 -16 -9 -21 5 -4 10 -1 21 7 26 20 12 29
11 29 -5z m-42 -37 c9 -12 30 -37 47 -57 28 -33 28 -35 10 -48 -14 -10 -22
-11 -29 -3 -8 8 -7 13 1 16 13 5 14 4 -37 64 -16 20 -30 39 -30 43 0 13 21 5
38 -15z m106 -135 c27 -26 39 -54 24 -54 -8 -1 -4 -7 7 -15 39 -28 86 -80 75
-83 -30 -10 -111 73 -95 98 3 4 -6 15 -20 24 -14 9 -25 23 -25 31 0 19 15 19
34 -1z m-14 -58 c0 -12 7 -31 15 -42 24 -31 17 -36 -23 -15 -41 21 -71 66 -49
74 7 2 20 -3 31 -12 18 -15 18 -15 11 8 -5 16 -4 21 4 17 6 -4 11 -17 11 -30z
m97 -8 c-3 -8 -6 -5 -6 6 -1 11 2 17 5 13 3 -3 4 -12 1 -19z"/>
<path d="M500 1225 c0 -2 10 -10 23 -16 20 -11 21 -11 8 4 -13 16 -31 23 -31
12z"/>
<path d="M771 984 c0 -11 3 -14 6 -6 3 7 2 16 -1 19 -3 4 -6 -2 -5 -13z"/>
<path d="M1153 955 c0 -22 2 -30 4 -17 2 12 2 30 0 40 -3 9 -5 -1 -4 -23z"/>
<path d="M1291 954 c0 -11 3 -14 6 -6 3 7 2 16 -1 19 -3 4 -6 -2 -5 -13z"/>
<path d="M781 944 c-1 -35 47 -118 96 -164 l47 -45 -46 51 c-51 56 -66 81 -84
139 -7 23 -13 31 -13 19z"/>
<path d="M954 896 c12 -23 22 -39 24 -35 4 9 -24 66 -36 73 -5 3 1 -14 12 -38z"/>
<path d="M1271 855 c-12 -30 -38 -71 -57 -92 -32 -37 -33 -37 -34 -13 -1 14
-4 20 -6 14 -2 -6 0 -28 5 -50 6 -26 9 -31 10 -15 1 13 15 39 31 58 33 37 83
129 78 143 -2 5 -14 -16 -27 -45z"/>
<path d="M1163 840 c0 -36 2 -50 4 -32 2 17 2 47 0 65 -2 17 -4 3 -4 -33z"/>
<path d="M1362 880 c0 -14 2 -19 5 -12 2 6 2 18 0 25 -3 6 -5 1 -5 -13z"/>
<path d="M1346 819 c-8 -42 0 -50 9 -9 4 17 5 34 2 36 -2 3 -7 -10 -11 -27z"/>
<path d="M982 825 c0 -11 4 -33 8 -50 7 -27 8 -27 8 -5 0 14 -4 36 -8 50 -6
20 -8 21 -8 5z"/>
<path d="M1322 733 c-15 -48 -8 -55 8 -8 7 20 10 38 8 41 -3 2 -10 -13 -16
-33z"/>
<path d="M1002 705 c0 -16 2 -22 5 -12 2 9 2 23 0 30 -3 6 -5 -1 -5 -18z"/>
<path d="M1296 665 c-9 -26 -7 -32 5 -12 6 10 9 21 6 23 -2 3 -7 -2 -11 -11z"/>
<path d="M1011 660 c0 -8 6 -28 14 -45 17 -39 18 -21 0 25 -7 19 -14 28 -14
20z"/>
<path d="M1192 640 c0 -14 2 -19 5 -12 2 6 2 18 0 25 -3 6 -5 1 -5 -13z"/>
<path d="M1270 594 c-16 -48 -96 -134 -123 -134 -12 0 -39 17 -62 38 l-40 37
40 -42 c22 -24 48 -43 60 -43 27 0 110 84 130 134 9 21 14 40 12 43 -3 2 -11
-13 -17 -33z"/>
<path d="M181 437 c-42 -21 -83 -82 -88 -130 -5 -39 -2 -46 22 -65 34 -27 76
-28 106 -2 13 10 19 19 13 20 -6 0 -17 -7 -24 -15 -16 -19 -60 -19 -88 1 -46
32 -10 141 60 179 50 26 58 13 19 -31 -24 -27 -30 -39 -21 -48 15 -15 41 3 60
42 8 17 22 33 30 35 9 3 6 5 -7 6 -12 0 -25 6 -28 11 -8 13 -25 12 -54 -3z
m47 -57 c-12 -19 -38 -35 -38 -24 0 16 23 44 35 44 13 0 13 -3 3 -20z"/>
<path d="M1300 378 c-13 -43 -26 -78 -30 -78 -3 0 -17 11 -29 24 -21 22 -22
28 -11 60 6 20 10 42 8 48 -3 7 -10 -9 -17 -34 -12 -43 -16 -47 -52 -53 -21
-4 -49 -15 -61 -26 -20 -16 -21 -20 -8 -29 8 -5 31 -10 51 -10 34 0 36 -2 32
-27 -4 -27 -3 -27 11 5 20 44 52 44 64 0 l9 -33 8 29 c5 18 19 33 39 42 31 13
31 13 5 14 l-27 0 19 62 c11 34 18 66 16 72 -2 6 -14 -24 -27 -66z m-100 -62
c0 -17 -44 -29 -73 -20 -20 6 -20 7 -2 20 25 18 75 18 75 0z m40 -7 c0 -5 -7
-9 -15 -9 -8 0 -15 7 -15 15 0 9 6 12 15 9 8 -4 15 -10 15 -15z"/>
<path d="M702 387 c-6 -6 -13 -24 -17 -39 -5 -21 -14 -28 -38 -31 l-32 -4 33
-1 c43 -3 44 -35 1 -57 -29 -15 -32 -15 -45 2 -8 10 -12 26 -10 37 4 16 1 15
-20 -5 -26 -24 -92 -34 -105 -15 -4 5 -12 -1 -18 -13 -13 -24 -31 -28 -31 -6
0 19 -9 19 -34 0 -11 -8 -35 -15 -54 -15 -30 0 -33 2 -27 21 6 19 4 21 -14 16
-16 -4 -21 -1 -21 15 0 10 -4 16 -10 13 -19 -12 -11 -45 10 -45 11 0 20 -6 20
-14 0 -22 27 -27 70 -12 33 11 42 11 51 0 6 -7 17 -10 25 -7 11 4 9 -4 -7 -31
-23 -40 -20 -77 5 -56 8 6 18 26 21 43 16 75 40 86 111 49 30 -14 34 -14 73 5
40 20 42 20 52 2 11 -21 40 -25 71 -8 16 9 22 8 29 -2 7 -12 12 -12 30 -1 15
10 24 11 32 3 15 -15 37 -14 71 4 26 14 31 14 46 0 9 -8 27 -15 39 -15 24 0
86 38 77 47 -3 3 -17 -4 -32 -16 -58 -46 -98 -15 -69 54 19 47 20 85 0 85 -15
0 -35 -57 -35 -103 0 -22 -7 -31 -34 -42 -42 -18 -64 -11 -72 21 -8 30 -10 30
-58 -6 -45 -34 -71 -38 -85 -12 -18 34 -3 59 42 70 l42 10 -35 1 c-35 1 -36 2
-32 36 4 37 1 43 -16 22z m278 -62 c-15 -41 -21 -26 -8 21 6 21 13 32 15 23 2
-8 -1 -28 -7 -44z m-385 -66 c10 -15 -1 -22 -24 -14 -12 3 -19 11 -16 16 8 12
32 11 40 -2z m225 -10 c-7 -11 -14 -18 -17 -15 -3 3 0 12 7 21 18 21 23 19 10
-6z m-389 -92 c-10 -9 -11 -8 -5 6 3 10 9 15 12 12 3 -3 0 -11 -7 -18z"/>
<path d="M1610 286 c0 -8 -12 -24 -26 -35 -15 -12 -22 -21 -17 -21 6 0 16 7
23 15 7 8 23 15 36 15 15 0 24 -6 24 -15 0 -8 4 -15 9 -15 4 0 6 12 3 26 -3
16 -9 23 -18 20 -8 -3 -14 1 -14 9 0 8 -4 15 -10 15 -5 0 -10 -6 -10 -14z"/>
<path d="M1347 272 c-28 -31 -19 -70 9 -42 8 8 19 7 38 -1 22 -10 32 -10 59 3
27 13 34 13 45 2 7 -8 23 -13 35 -13 21 2 21 2 -2 6 -13 3 -25 13 -28 23 -5
18 -6 18 -43 -1 -44 -23 -80 -13 -80 21 0 25 -12 25 -33 2z m11 -22 c-14 -22
-24 -19 -15 5 4 8 11 15 17 15 6 0 6 -7 -2 -20z"/>
<path d="M1755 260 c-3 -5 -20 -14 -38 -19 -23 -7 -26 -9 -11 -10 12 -1 32 8
45 19 13 10 21 19 17 20 -4 0 -10 -4 -13 -10z"/>
</g>
</svg>
